HIERARCHY
ROOT center
{
	OFFSET 0.0 0.0 0.0
	CHANNELS 6 Xposition Yposition Zposition Zrotation Yrotation Xrotation
	JOINT left_hip
	{
		OFFSET 0.0 0.0 0.0
		CHANNELS 3 Zrotation Yrotation Xrotation
		JOINT left_knee
		{
			OFFSET 5.841220 -8.074988 -1.681093
			CHANNELS 3 Zrotation Yrotation Xrotation
			JOINT left_ankle
			{
				OFFSET 4.424825 -39.628194 0.795888
				CHANNELS 3 Zrotation Yrotation Xrotation
				JOINT left_feet
				{
					OFFSET -1.888501 -43.283612 -3.945449
					CHANNELS 3 Zrotation Yrotation Xrotation
					End Site
					{
						OFFSET 4.529286 -5.872662 11.731700
					}
				}
			}
		}
	}
	JOINT right_hip
	{
		OFFSET 0.0 0.0 0.0
		CHANNELS 3 Zrotation Yrotation Xrotation
		JOINT right_knee
		{
			OFFSET -6.039430 -8.904412 -1.389475
			CHANNELS 3 Zrotation Yrotation Xrotation
			JOINT right_ankle
			{
				OFFSET -4.543968 -39.349317 -0.420984
				CHANNELS 3 Zrotation Yrotation Xrotation
				JOINT right_feet
				{
					OFFSET 2.155471 -42.631795 -3.565529
					CHANNELS 3 Zrotation Yrotation Xrotation
					End Site
					{
						OFFSET -3.792260 -6.520381 12.520051
					}
				}
			}
		}
	}
	JOINT spine1
	{
		OFFSET 0.0 0.0 0.0
		CHANNELS 3 Zrotation Yrotation Xrotation
		JOINT spine2
		{
			OFFSET 0.484239 12.422549 -4.429257
			CHANNELS 3 Zrotation Yrotation Xrotation
			JOINT neck
			{
				OFFSET 0.468670 13.069893 3.670202
				CHANNELS 3 Zrotation Yrotation Xrotation
				JOINT head1
				{
					OFFSET -0.321492 5.345386 0.366822
					CHANNELS 3 Zrotation Yrotation Xrotation
					JOINT head2
					{
						OFFSET -1.343195 19.680170 -2.821815
						CHANNELS 3 Zrotation Yrotation Xrotation
						End Site
						{
							OFFSET 0.996522 8.349460 4.932682
						}
					}
				}
				JOINT left_armpit
				{
					OFFSET -0.321492 5.345386 0.366822
					CHANNELS 3 Zrotation Yrotation Xrotation
					JOINT left_shoulder
					{
						OFFSET 7.203726 10.925008 -1.221471
						CHANNELS 3 Zrotation Yrotation Xrotation
						JOINT left_elbow
						{
							OFFSET 11.684943 4.169263 -2.710228
							CHANNELS 3 Zrotation Yrotation Xrotation
							JOINT left_wrist
							{
								OFFSET 25.765632 -1.586904 -2.059592
								CHANNELS 3 Zrotation Yrotation Xrotation
								JOINT left_hand
								{
									OFFSET 0.000000 0.000000 0.000000
									CHANNELS 3 Zrotation Yrotation Xrotation
									JOINT left_thumb1
									{
										OFFSET 26.120297 1.241024 -0.845988
										CHANNELS 3 Zrotation Yrotation Xrotation
										JOINT left_thumb2
										{
											OFFSET 4.010438 -1.568731 2.949141
											CHANNELS 3 Zrotation Yrotation Xrotation
											JOINT left_thumb3
											{
												OFFSET 1.830585 -1.071685 2.356435
												CHANNELS 3 Zrotation Yrotation Xrotation
												JOINT left_thumb4
												{
													OFFSET 2.278410 -1.212398 1.778853
													CHANNELS 3 Zrotation Yrotation Xrotation
													End Site
													{
														OFFSET 1.806060 -0.869962 1.000329
													}
												}
											}
										}
									}
									JOINT left_index1
									{
										OFFSET 26.120297 1.241024 -0.845988
										CHANNELS 3 Zrotation Yrotation Xrotation
										JOINT left_index2
										{
											OFFSET 9.224754 0.370886 2.351526
											CHANNELS 3 Zrotation Yrotation Xrotation
											JOINT left_index3
											{
												OFFSET 4.174717 0.138165 0.167353
												CHANNELS 3 Zrotation Yrotation Xrotation
												JOINT left_index4
												{
													OFFSET 2.188607 -0.573196 -0.004836
													CHANNELS 3 Zrotation Yrotation Xrotation
													End Site
													{
														OFFSET 1.957913 -0.318347 -0.089755
													}
												}
											}
										}
									}
									JOINT left_middle1
									{
										OFFSET 26.120297 1.241024 -0.845988
										CHANNELS 3 Zrotation Yrotation Xrotation
										JOINT left_middle2
										{
											OFFSET 8.998380 0.538766 0.086803
											CHANNELS 3 Zrotation Yrotation Xrotation
											JOINT left_middle3
											{
												OFFSET 4.406943 0.062665 -0.445785
												CHANNELS 3 Zrotation Yrotation Xrotation
												JOINT left_middle4
												{
													OFFSET 2.270577 -0.985050 -0.004172
													CHANNELS 3 Zrotation Yrotation Xrotation
													End Site
													{
														OFFSET 1.963791 -0.757752 -0.034084
													}
												}
											}
										}
									}
									JOINT left_ring1
									{
										OFFSET 26.120297 1.241024 -0.845988
										CHANNELS 3 Zrotation Yrotation Xrotation
										JOINT left_ring2
										{
											OFFSET 8.568142 0.268580 -1.678046
											CHANNELS 3 Zrotation Yrotation Xrotation
											JOINT left_ring3
											{
												OFFSET 3.719284 -0.073824 -0.884432
												CHANNELS 3 Zrotation Yrotation Xrotation
												JOINT left_ring4
												{
													OFFSET 2.014142 -1.218435 -0.180985
													CHANNELS 3 Zrotation Yrotation Xrotation
													End Site
													{
														OFFSET 1.641716 -1.060958 -0.129054
													}
												}
											}
										}
									}
									JOINT left_little1
									{
										OFFSET 26.120297 1.241024 -0.845988
										CHANNELS 3 Zrotation Yrotation Xrotation
										JOINT left_little2
										{
											OFFSET 7.682598 -0.146797 -3.179139
											CHANNELS 3 Zrotation Yrotation Xrotation
											JOINT left_little3
											{
												OFFSET 2.854990 -0.493432 -1.266199
												CHANNELS 3 Zrotation Yrotation Xrotation
												JOINT left_little4
												{
													OFFSET 1.425979 -0.731867 -0.398099
													CHANNELS 3 Zrotation Yrotation Xrotation
													End Site
													{
														OFFSET 1.230221 -0.832650 -0.141236
													}
												}
											}
										}
									}
								}
							}
						}
					}
				}
				JOINT right_armpit
				{
					OFFSET -0.321492 5.345386 0.366822
					CHANNELS 3 Zrotation Yrotation Xrotation
					JOINT right_shoulder
					{
						OFFSET -8.390868 10.803578 -1.603465
						CHANNELS 3 Zrotation Yrotation Xrotation
						JOINT right_elbow
						{
							OFFSET -10.829505 4.345781 -1.654356
							CHANNELS 3 Zrotation Yrotation Xrotation
							JOINT right_wrist
							{
								OFFSET -26.072639 -1.460885 -2.859779
								CHANNELS 3 Zrotation Yrotation Xrotation
								JOINT right_hand
								{
									OFFSET 0.000000 0.000000 0.000000
									CHANNELS 3 Zrotation Yrotation Xrotation
									JOINT right_thumb1
									{
										OFFSET -26.819388 0.939052 -0.515718
										CHANNELS 3 Zrotation Yrotation Xrotation
										JOINT right_thumb2
										{
											OFFSET -3.615894 -1.789589 3.237802
											CHANNELS 3 Zrotation Yrotation Xrotation
											JOINT right_thumb3
											{
												OFFSET -1.877298 -1.039407 2.551711
												CHANNELS 3 Zrotation Yrotation Xrotation
												JOINT right_thumb4
												{
													OFFSET -2.393686 -1.286209 2.029124
													CHANNELS 3 Zrotation Yrotation Xrotation
													End Site
													{
														OFFSET -2.016763 -1.054939 1.071380
													}
												}
											}
										}
									}
									JOINT right_index1
									{
										OFFSET -26.819388 0.939052 -0.515718
										CHANNELS 3 Zrotation Yrotation Xrotation
										JOINT right_index2
										{
											OFFSET -9.269798 -0.026519 2.485814
											CHANNELS 3 Zrotation Yrotation Xrotation
											JOINT right_index3
											{
												OFFSET -4.377712 -0.056954 0.167889
												CHANNELS 3 Zrotation Yrotation Xrotation
												JOINT right_index4
												{
													OFFSET -2.318143 -0.734734 0.048430
													CHANNELS 3 Zrotation Yrotation Xrotation
													End Site
													{
														OFFSET -1.995365 -0.429565 -0.017864
													}
												}
											}
										}
									}
									JOINT right_middle1
									{
										OFFSET -26.819388 0.939052 -0.515718
										CHANNELS 3 Zrotation Yrotation Xrotation
										JOINT right_middle2
										{
											OFFSET -9.057910 0.003390 -0.007864
											CHANNELS 3 Zrotation Yrotation Xrotation
											JOINT right_middle3
											{
												OFFSET -4.700356 -0.215712 -0.385423
												CHANNELS 3 Zrotation Yrotation Xrotation
												JOINT right_middle4
												{
													OFFSET -2.378063 -1.156565 0.065107
													CHANNELS 3 Zrotation Yrotation Xrotation
													End Site
													{
														OFFSET -1.933497 -0.907626 0.022175
													}
												}
											}
										}
									}
									JOINT right_ring1
									{
										OFFSET -26.819388 0.939052 -0.515718
										CHANNELS 3 Zrotation Yrotation Xrotation
										JOINT right_ring2
										{
											OFFSET -8.561647 -0.387421 -1.783286
											CHANNELS 3 Zrotation Yrotation Xrotation
											JOINT right_ring3
											{
												OFFSET -3.881278 -0.315173 -0.917690
												CHANNELS 3 Zrotation Yrotation Xrotation
												JOINT right_ring4
												{
													OFFSET -2.158916 -1.420313 -0.103601
													CHANNELS 3 Zrotation Yrotation Xrotation
													End Site
													{
														OFFSET -1.630479 -1.125670 -0.087972
													}
												}
											}
										}
									}
									JOINT right_little1
									{
										OFFSET -26.819388 0.939052 -0.515718
										CHANNELS 3 Zrotation Yrotation Xrotation
										JOINT right_little2
										{
											OFFSET -7.656273 -0.914094 -3.404004
											CHANNELS 3 Zrotation Yrotation Xrotation
											JOINT right_little3
											{
												OFFSET -2.870307 -0.708213 -1.202052
												CHANNELS 3 Zrotation Yrotation Xrotation
												JOINT right_little4
												{
													OFFSET -1.528629 -0.902921 -0.372664
													CHANNELS 3 Zrotation Yrotation Xrotation
													End Site
													{
														OFFSET -1.211598 -0.937119 -0.063842
													}
												}
											}
										}
									}
								}
							}
						}
					}
				}
			}
		}
	}
}
MOTION
Frames: 5
Frame Time: 0.071428
36.884170 -6.631419 166.002447 0.0 0.0 0.0 0.587866 -11.235307 -167.979155 -4.152973 3.697157 9.041044 3.539380 3.470493 -2.919794 0.000000 0.000000 -16.179113 0.587866 -11.235307 -167.979155 -9.317554 -3.808321 4.905417 -2.879146 -3.849298 5.432105 0.000000 0.000000 -13.498934 0.587866 -11.235307 -167.979155 -0.533093 -0.178645 0.500255 -1.174902 0.001298 0.883767 -0.749787 -0.048281 0.694372 1.833936 -0.790490 -1.139627 -0.749787 -0.048281 0.694372 -25.185530 2.226466 0.700872 -48.579079 -3.210336 0.692044 -17.860880 -9.695691 0.428251 0.000000 0.000000 0.000000 0.000000 0.000000 0.000000 0.000000 0.000000 0.000000 0.000000 0.000000 0.000000 0.000000 0.000000 0.000000 0.000000 0.000000 0.000000 0.000000 0.000000 0.000000 0.000000 0.000000 0.000000 0.000000 0.000000 0.000000 0.000000 0.000000 0.000000 0.000000 0.000000 0.000000 0.000000 0.000000 0.000000 0.000000 0.000000 0.000000 0.000000 0.000000 0.000000 0.000000 0.000000 0.000000 0.000000 0.000000 0.000000 0.000000 0.000000 0.000000 0.000000 0.000000 0.000000 0.000000 0.000000 0.000000 0.000000 0.000000 0.000000 0.000000 0.000000 0.000000 -0.749787 -0.048281 0.694372 22.459569 1.890429 -0.665494 54.933641 2.514220 0.948281 13.220022 9.815483 0.591402 0.000000 0.000000 0.000000 0.000000 0.000000 0.000000 0.000000 0.000000 0.000000 0.000000 0.000000 0.000000 0.000000 0.000000 0.000000 0.000000 0.000000 0.000000 0.000000 0.000000 0.000000 0.000000 0.000000 0.000000 0.000000 0.000000 0.000000 0.000000 0.000000 0.000000 0.000000 0.000000 0.000000 0.000000 0.000000 0.000000 0.000000 0.000000 0.000000 0.000000 0.000000 0.000000 0.000000 0.000000 0.000000 0.000000 0.000000 0.000000 0.000000 0.000000 0.000000 0.000000 0.000000 0.000000 0.000000 0.000000 0.000000 0.000000 0.000000 0.000000 0.000000 0.000000 0.000000
36.922328 -6.521500 165.881643 0.0 0.0 0.0 1.135335 -11.540759 -167.446199 -3.254919 4.405372 8.228547 2.592571 4.202384 -2.861384 0.000000 0.000000 -15.446324 1.135335 -11.540759 -167.446199 -8.407501 -4.351173 4.160520 -3.192230 -4.371142 5.107444 0.000000 0.000000 -8.495922 1.135335 -11.540759 -167.446199 -0.581193 -0.170576 0.513220 -1.193975 0.001479 0.923037 -0.764919 -0.049569 0.735793 -0.622543 -2.885843 -0.826848 -0.764919 -0.049569 0.735793 -27.127013 3.118603 0.593000 -46.828577 -3.071372 1.030590 -16.560918 -11.248052 0.543765 0.000000 0.000000 0.000000 0.000000 0.000000 0.000000 0.000000 0.000000 0.000000 0.000000 0.000000 0.000000 0.000000 0.000000 0.000000 0.000000 0.000000 0.000000 0.000000 0.000000 0.000000 0.000000 0.000000 0.000000 0.000000 0.000000 0.000000 0.000000 0.000000 0.000000 0.000000 0.000000 0.000000 0.000000 0.000000 0.000000 0.000000 0.000000 0.000000 0.000000 0.000000 0.000000 0.000000 0.000000 0.000000 0.000000 0.000000 0.000000 0.000000 0.000000 0.000000 0.000000 0.000000 0.000000 0.000000 0.000000 0.000000 0.000000 0.000000 0.000000 0.000000 0.000000 0.000000 -0.764919 -0.049569 0.735793 24.407983 1.813732 -1.101756 53.466797 2.907965 0.992134 12.993053 9.128550 0.602873 0.000000 0.000000 0.000000 0.000000 0.000000 0.000000 0.000000 0.000000 0.000000 0.000000 0.000000 0.000000 0.000000 0.000000 0.000000 0.000000 0.000000 0.000000 0.000000 0.000000 0.000000 0.000000 0.000000 0.000000 0.000000 0.000000 0.000000 0.000000 0.000000 0.000000 0.000000 0.000000 0.000000 0.000000 0.000000 0.000000 0.000000 0.000000 0.000000 0.000000 0.000000 0.000000 0.000000 0.000000 0.000000 0.000000 0.000000 0.000000 0.000000 0.000000 0.000000 0.000000 0.000000 0.000000 0.000000 0.000000 0.000000 0.000000 0.000000 0.000000 0.000000 0.000000 0.000000
36.888665 -6.568140 166.056542 0.0 0.0 0.0 1.120981 -10.946481 -167.529502 -3.954337 3.741109 8.603638 3.712069 3.530716 -2.456387 0.000000 0.000000 -16.399868 1.120981 -10.946481 -167.529502 -8.118121 -4.222638 4.355570 -3.741736 -4.231290 4.830879 0.000000 0.000000 -12.745494 1.120981 -10.946481 -167.529502 -0.541229 -0.149873 0.500585 -1.191726 0.032801 0.903795 -0.770918 -0.018064 0.714543 -1.068094 -2.340998 -1.100368 -0.770918 -0.018064 0.714543 -25.878151 2.800350 0.680256 -48.423808 -3.585125 0.998135 -15.767660 -9.852425 0.535989 0.000000 0.000000 0.000000 0.000000 0.000000 0.000000 0.000000 0.000000 0.000000 0.000000 0.000000 0.000000 0.000000 0.000000 0.000000 0.000000 0.000000 0.000000 0.000000 0.000000 0.000000 0.000000 0.000000 0.000000 0.000000 0.000000 0.000000 0.000000 0.000000 0.000000 0.000000 0.000000 0.000000 0.000000 0.000000 0.000000 0.000000 0.000000 0.000000 0.000000 0.000000 0.000000 0.000000 0.000000 0.000000 0.000000 0.000000 0.000000 0.000000 0.000000 0.000000 0.000000 0.000000 0.000000 0.000000 0.000000 0.000000 0.000000 0.000000 0.000000 0.000000 0.000000 0.000000 -0.770918 -0.018064 0.714543 23.661765 2.689828 -0.671560 53.479377 3.527468 1.018571 14.029205 7.834304 0.618384 0.000000 0.000000 0.000000 0.000000 0.000000 0.000000 0.000000 0.000000 0.000000 0.000000 0.000000 0.000000 0.000000 0.000000 0.000000 0.000000 0.000000 0.000000 0.000000 0.000000 0.000000 0.000000 0.000000 0.000000 0.000000 0.000000 0.000000 0.000000 0.000000 0.000000 0.000000 0.000000 0.000000 0.000000 0.000000 0.000000 0.000000 0.000000 0.000000 0.000000 0.000000 0.000000 0.000000 0.000000 0.000000 0.000000 0.000000 0.000000 0.000000 0.000000 0.000000 0.000000 0.000000 0.000000 0.000000 0.000000 0.000000 0.000000 0.000000 0.000000 0.000000 0.000000 0.000000
36.719304 -6.715665 165.805092 0.0 0.0 0.0 1.103532 -10.923596 -167.257343 -3.336787 4.161979 8.381721 2.771252 3.953955 -3.181805 0.000000 0.000000 -15.122155 1.103532 -10.923596 -167.257343 -7.657372 -4.131847 4.489208 -4.309553 -4.126700 4.534987 0.000000 0.000000 -10.714567 1.103532 -10.923596 -167.257343 -0.597029 -0.150402 0.510536 -1.203547 0.019916 0.912184 -0.773678 -0.031331 0.729328 -1.314112 -2.948031 -0.594010 -0.773678 -0.031331 0.729328 -26.873989 3.493933 0.268381 -47.118164 -3.922970 0.964276 -16.137582 -9.390781 0.521903 0.000000 0.000000 0.000000 0.000000 0.000000 0.000000 0.000000 0.000000 0.000000 0.000000 0.000000 0.000000 0.000000 0.000000 0.000000 0.000000 0.000000 0.000000 0.000000 0.000000 0.000000 0.000000 0.000000 0.000000 0.000000 0.000000 0.000000 0.000000 0.000000 0.000000 0.000000 0.000000 0.000000 0.000000 0.000000 0.000000 0.000000 0.000000 0.000000 0.000000 0.000000 0.000000 0.000000 0.000000 0.000000 0.000000 0.000000 0.000000 0.000000 0.000000 0.000000 0.000000 0.000000 0.000000 0.000000 0.000000 0.000000 0.000000 0.000000 0.000000 0.000000 0.000000 0.000000 -0.773678 -0.031331 0.729328 24.484965 1.842562 -1.065487 53.203275 2.994804 1.062910 13.467333 9.584447 0.630232 0.000000 0.000000 0.000000 0.000000 0.000000 0.000000 0.000000 0.000000 0.000000 0.000000 0.000000 0.000000 0.000000 0.000000 0.000000 0.000000 0.000000 0.000000 0.000000 0.000000 0.000000 0.000000 0.000000 0.000000 0.000000 0.000000 0.000000 0.000000 0.000000 0.000000 0.000000 0.000000 0.000000 0.000000 0.000000 0.000000 0.000000 0.000000 0.000000 0.000000 0.000000 0.000000 0.000000 0.000000 0.000000 0.000000 0.000000 0.000000 0.000000 0.000000 0.000000 0.000000 0.000000 0.000000 0.000000 0.000000 0.000000 0.000000 0.000000 0.000000 0.000000 0.000000 0.000000
36.724272 -6.485496 165.729773 0.0 0.0 0.0 1.007783 -11.372546 -167.117138 -2.971165 4.118770 9.307178 1.912419 3.876150 -4.682898 0.000000 0.000000 -16.085540 1.007783 -11.372546 -167.117138 -8.274988 -3.951571 4.996123 -2.977007 -3.966690 3.918904 0.000000 0.000000 -12.825906 1.007783 -11.372546 -167.117138 -0.549391 -0.181216 0.502513 -1.183115 -0.003180 0.918552 -0.755051 -0.055024 0.733710 -1.683017 -3.780209 -0.378019 -0.755051 -0.055024 0.733710 -25.218093 3.424849 0.173734 -49.563701 -4.837386 0.860579 -14.809984 -6.930760 0.494404 0.000000 0.000000 0.000000 0.000000 0.000000 0.000000 0.000000 0.000000 0.000000 0.000000 0.000000 0.000000 0.000000 0.000000 0.000000 0.000000 0.000000 0.000000 0.000000 0.000000 0.000000 0.000000 0.000000 0.000000 0.000000 0.000000 0.000000 0.000000 0.000000 0.000000 0.000000 0.000000 0.000000 0.000000 0.000000 0.000000 0.000000 0.000000 0.000000 0.000000 0.000000 0.000000 0.000000 0.000000 0.000000 0.000000 0.000000 0.000000 0.000000 0.000000 0.000000 0.000000 0.000000 0.000000 0.000000 0.000000 0.000000 0.000000 0.000000 0.000000 0.000000 0.000000 0.000000 -0.755051 -0.055024 0.733710 24.476776 1.613756 -1.316563 53.087781 3.377159 0.988951 13.792462 8.096634 0.605585 0.000000 0.000000 0.000000 0.000000 0.000000 0.000000 0.000000 0.000000 0.000000 0.000000 0.000000 0.000000 0.000000 0.000000 0.000000 0.000000 0.000000 0.000000 0.000000 0.000000 0.000000 0.000000 0.000000 0.000000 0.000000 0.000000 0.000000 0.000000 0.000000 0.000000 0.000000 0.000000 0.000000 0.000000 0.000000 0.000000 0.000000 0.000000 0.000000 0.000000 0.000000 0.000000 0.000000 0.000000 0.000000 0.000000 0.000000 0.000000 0.000000 0.000000 0.000000 0.000000 0.000000 0.000000 0.000000 0.000000 0.000000 0.000000 0.000000 0.000000 0.000000 0.000000 0.000000
